<svg width="128" height="128" viewBox="0 0 128 128" fill="none" xmlns="http://www.w3.org/2000/svg">
  <rect width="128" height="128" rx="64" fill="#F4EFE8"/>
  <circle cx="64" cy="48" r="24" fill="#E7D6C6"/>
  <path d="M39 108C39 92.536 50.6406 80 65 80H63C77.3594 80 89 92.536 89 108V112H39V108Z" fill="#1E3A14"/>
  <path d="M46 47C46 34.2975 54.9543 24 64 24C73.0457 24 82 34.2975 82 47C82 59.7025 73.0457 67 64 67C54.9543 67 46 59.7025 46 47Z" fill="#8C5E42"/>
  <path d="M50 50C50 38.9543 56.268 31 64 31C71.732 31 78 38.9543 78 50C78 61.0457 71.732 69 64 69C56.268 69 50 61.0457 50 50Z" fill="#F6E8D8"/>
  <circle cx="58" cy="49" r="2.5" fill="#5B3A29"/>
  <circle cx="70" cy="49" r="2.5" fill="#5B3A29"/>
  <path d="M57 59C58.8831 61.2091 61.2384 62.25 64 62.25C66.7616 62.25 69.1169 61.2091 71 59" stroke="#5B3A29" stroke-width="3" stroke-linecap="round"/>
  <path d="M48 42C49.6274 31.8897 56.0915 27 64 27C71.9085 27 78.3726 31.8897 80 42C76.571 38.9848 71.2915 37 64 37C56.7085 37 51.429 38.9848 48 42Z" fill="#1E3A14"/>
</svg>