<svg width="96" height="96" viewBox="0 0 96 96" fill="none" xmlns="http://www.w3.org/2000/svg">
  <rect width="96" height="96" rx="24" fill="#F5EEE7"/>
  <circle cx="48" cy="34" r="18" fill="#8C5E42"/>
  <path d="M22 82C22 66.536 33.6406 54 48 54C62.3594 54 74 66.536 74 82V96H22V82Z" fill="#1E3A14"/>
  <circle cx="48" cy="39" r="16" fill="#F7DCC8"/>
  <circle cx="42" cy="38" r="2.5" fill="#4E301F"/>
  <circle cx="54" cy="38" r="2.5" fill="#4E301F"/>
  <path d="M42 47C43.8196 49.1238 45.9817 50 48 50C50.0183 50 52.1804 49.1238 54 47" stroke="#4E301F" stroke-width="2.5" stroke-linecap="round"/>
  <path d="M30 36C30 27.1634 38.0589 20 48 20C57.9411 20 66 27.1634 66 36C61.5054 32.9056 55.5054 31 48 31C40.4946 31 34.4946 32.9056 30 36Z" fill="#C4895E"/>
</svg>