<svg width="96" height="96" viewBox="0 0 96 96" fill="none" xmlns="http://www.w3.org/2000/svg">
  <rect width="96" height="96" rx="24" fill="#F3ECE5"/>
  <circle cx="48" cy="34" r="18" fill="#6B442E"/>
  <path d="M22 82C22 66.536 33.6406 54 48 54C62.3594 54 74 66.536 74 82V96H22V82Z" fill="#8C5E42"/>
  <circle cx="48" cy="38" r="16" fill="#F6D8C4"/>
  <circle cx="42" cy="37" r="2.5" fill="#5A3523"/>
  <circle cx="54" cy="37" r="2.5" fill="#5A3523"/>
  <path d="M42 47C43.8196 49.1238 45.9817 50 48 50C50.0183 50 52.1804 49.1238 54 47" stroke="#5A3523" stroke-width="2.5" stroke-linecap="round"/>
  <path d="M29 33C31.1615 24.5041 38.5689 20 48 20C57.4311 20 64.8385 24.5041 67 33C61.7408 29.9706 55.5741 28.5 48 28.5C40.4259 28.5 34.2592 29.9706 29 33Z" fill="#1E3A14"/>
</svg>