<svg width="96" height="96" viewBox="0 0 96 96" fill="none" xmlns="http://www.w3.org/2000/svg">
  <rect width="96" height="96" rx="24" fill="#EEF1EC"/>
  <circle cx="48" cy="34" r="18" fill="#1E3A14"/>
  <path d="M22 82C22 66.536 33.6406 54 48 54C62.3594 54 74 66.536 74 82V96H22V82Z" fill="#315120"/>
  <circle cx="48" cy="39" r="16" fill="#F2D2BA"/>
  <circle cx="42" cy="38" r="2.5" fill="#432918"/>
  <circle cx="54" cy="38" r="2.5" fill="#432918"/>
  <path d="M42 47.5C43.8196 49.6238 45.9817 50.5 48 50.5C50.0183 50.5 52.1804 49.6238 54 47.5" stroke="#432918" stroke-width="2.5" stroke-linecap="round"/>
  <path d="M33 29C36.6302 23.8192 41.7216 21 48 21C54.2784 21 59.3698 23.8192 63 29V36C57.8225 33.6057 52.8225 32.5 48 32.5C43.1775 32.5 38.1775 33.6057 33 36V29Z" fill="#8C5E42"/>
</svg>