<svg width="96" height="96" viewBox="0 0 96 96" fill="none" xmlns="http://www.w3.org/2000/svg">
  <rect width="96" height="96" rx="24" fill="#EEF0F2"/>
  <circle cx="48" cy="34" r="18" fill="#334155"/>
  <path d="M22 82C22 66.536 33.6406 54 48 54C62.3594 54 74 66.536 74 82V96H22V82Z" fill="#64748B"/>
  <circle cx="48" cy="39" r="16" fill="#F3D9C9"/>
  <circle cx="42" cy="38" r="2.5" fill="#3F2A1D"/>
  <circle cx="54" cy="38" r="2.5" fill="#3F2A1D"/>
  <path d="M42 47.5C43.8196 49.6238 45.9817 50.5 48 50.5C50.0183 50.5 52.1804 49.6238 54 47.5" stroke="#3F2A1D" stroke-width="2.5" stroke-linecap="round"/>
  <path d="M32 30C35.8399 24.7868 41.1732 22 48 22C54.8268 22 60.1601 24.7868 64 30V35.5C58.8965 33.5145 53.5632 32.5 48 32.5C42.4368 32.5 37.1035 33.5145 32 35.5V30Z" fill="#1E293B"/>
</svg>